<svg width="90" height="90" viewBox="0 0 90 90" fill="none" xmlns="http://www.w3.org/2000/svg">
<circle cx="45" cy="45" r="45" fill="#67FF94"/>
<path d="M52.1562 31.2359V40.4673C59.9722 32.4948 69.2373 30.2251 79.5428 31.22V46.4636C77.985 46.4636 76.4294 46.4709 74.8715 46.4636C74.1482 46.4574 73.434 46.4538 72.713 46.5186C72.0794 46.5754 71.4493 46.6684 70.8252 46.7972C69.6021 47.051 68.4098 47.449 67.2708 47.984C66.1117 48.5292 65.0106 49.2028 63.9861 49.9933C63.4019 50.4452 62.8402 50.9286 62.3032 51.4417C56.537 56.9417 49.6875 59.6489 41.8947 59.6746C40.4688 59.6746 39.044 59.6746 37.4653 59.6746V49.6474L37.1505 49.3737C33.4468 52.9609 29.4745 56.0531 24.7095 57.8473C19.9444 59.6416 15.044 59.8652 10 59.6098C10 50.5983 10 40.0212 10 31H24.4549C24.4549 33.5667 24.4468 37.6929 24.4468 40.6873C32.3426 32.5718 41.6551 30.1933 52.1562 31.2359Z" fill="#2C3D5A"/>
</svg>
