<svg width="106" height="13" viewBox="0 0 106 13" fill="none" xmlns="http://www.w3.org/2000/svg">
<path d="M13.0243 3.84756V6.699C15.4398 4.235 18.3021 3.53345 21.4873 3.84145V8.55067C21.0058 8.55067 20.5255 8.55067 20.044 8.55067C19.8194 8.55067 19.5995 8.55067 19.3762 8.56778C19.1819 8.5849 18.9887 8.61346 18.7975 8.65334C18.4195 8.73186 18.0511 8.85485 17.6991 9.02C17.3418 9.18981 17.0023 9.39874 16.6863 9.64334C16.5058 9.78268 16.3322 9.93301 16.1655 10.0907C14.3843 11.7883 12.2662 12.6268 9.85995 12.6353H8.48611V9.537L8.38889 9.45145C7.24537 10.56 6.01736 11.5158 4.54514 12.0707C3.07292 12.6256 1.55903 12.694 0 12.6146V3.77423H4.46528C4.46528 4.56745 4.46528 5.84223 4.46528 6.76745C6.90625 4.26067 9.78009 3.52122 13.0243 3.84756Z" fill="#2C3D5A"/>
<path d="M22.5312 0C23.1794 0.374 26.8553 0.374 27.5081 0C26.8588 0.374 26.8588 2.49578 27.5081 2.86978C26.8588 2.49578 23.1829 2.49578 22.5312 2.86978C23.1759 2.49578 23.1759 0.374 22.5312 0Z" fill="#89C37D"/>
<path d="M22.6227 3.78644H27.4051V12.6329H22.6227V3.78644Z" fill="#2C3D5A"/>
<path d="M28.4051 9.96477L32.441 7.08156V7.04611H28.5579V3.78644H38.2407V6.41911L34.1366 9.35245V9.37078H38.2407V12.6304H28.4028L28.4051 9.96477Z" fill="#2C3D5A"/>
<path d="M39.0718 10.34C39.0718 9.284 39.7327 8.10211 42.022 8.10211H45.8542V7.52889C45.8542 6.93855 45.4989 6.41912 44.6169 6.41912C43.735 6.41912 43.3276 6.79433 43.3276 7.38589C43.3263 7.4459 43.3321 7.50585 43.3449 7.56434H39.3935C39.355 7.3703 39.3379 7.1722 39.3426 6.974C39.3426 4.96834 40.8009 3.60678 44.8033 3.60678C49.059 3.60678 50.6366 5.38022 50.6366 7.58267V12.6329H45.8542L45.9051 10.8949H45.8715C45.4989 11.8983 44.4977 12.8113 42.4294 12.8113C39.8519 12.8101 39.0718 11.451 39.0718 10.34ZM45.8542 9.58834V9.37322H44.4132C43.7188 9.37322 43.4468 9.61767 43.4468 10.0186C43.4468 10.3938 43.7014 10.7348 44.3959 10.7348C45.2952 10.7323 45.8206 10.1616 45.8542 9.58834Z" fill="#2C3D5A"/>
<path d="M51.5359 3.78645H56.3171L56.2489 6.32867H56.3009C56.6898 4.87911 57.6736 3.63978 59.5417 3.63978C62.0174 3.63978 62.6667 5.03678 62.6667 7.32845C62.6667 8.20601 62.632 9.17278 62.5984 9.69223H58.6979L58.7153 8.70711C58.7153 7.97378 58.4097 7.48489 57.647 7.48489C56.8669 7.48489 56.3241 8.129 56.3241 9.29378V12.6243H51.5359V3.78645Z" fill="#2C3D5A"/>
<path d="M63.287 8.13756C63.287 5.38022 65.0162 3.60678 67.7291 3.60678C69.5266 3.60678 70.5613 4.21789 70.9849 4.93289H71.0196V0.098999H75.8009V12.6329H71.0196C71.0358 11.9704 71.0706 11.2713 71.0868 10.6443H71.0358C70.5949 11.6294 69.6469 12.8113 67.6111 12.8113C64.8472 12.8101 63.287 11.0562 63.287 8.13756ZM71.0196 8.24511V7.81611C70.9687 7.18789 70.4768 6.57678 69.5219 6.57678C68.5671 6.57678 68.0636 7.18789 68.0636 8.18766C68.0636 9.18744 68.5381 9.83522 69.5057 9.83522C70.3912 9.83888 71.0023 9.19478 71.0196 8.24511Z" fill="#2C3D5A"/>
<path d="M76.632 9.69589H80.4306C80.4641 10.34 80.7523 10.824 81.7535 10.824C82.7546 10.824 83.0417 10.4304 83.0417 10.0002C83.0417 9.64211 82.8727 9.40867 82.3472 9.33778C81.8218 9.26689 81.2118 9.23022 80.6516 9.19478C79.1088 9.07256 78.1597 8.89044 77.5995 8.56778C77.3032 8.3949 77.0568 8.14037 76.8866 7.83129C76.7164 7.52221 76.6288 7.17017 76.6331 6.81267C76.6331 4.84245 78.5324 3.60678 82.11 3.60678C86.8241 3.60678 87.4514 5.11134 87.4514 6.77723H83.669C83.6528 5.97056 83.3472 5.59533 82.4479 5.59533C81.6852 5.59533 81.279 5.93511 81.279 6.43622C81.279 6.79433 81.4815 7.08155 82.1088 7.16955C82.6516 7.25878 83.3137 7.31256 84.0081 7.34922C85.0938 7.42011 86.0776 7.50934 86.7211 7.832C87.603 8.27934 87.8241 9.03223 87.8241 9.69467C87.8241 11.2701 86.8739 12.8101 82.0371 12.8101C77.1065 12.8101 76.632 11.0746 76.632 9.69589Z" fill="#2C3D5A"/>
<path d="M88.9896 10.6883H90.934V12.5351H88.9896V10.6883Z" fill="#2C3D5A"/>
<path d="M91.6169 6.34822H93.9768V12.5351H91.6169V6.34822Z" fill="#2C3D5A"/>
<path d="M94.4294 11.4033C94.4294 10.8827 94.7558 10.3033 95.8854 10.3033H97.7766V10.021C97.7766 9.72889 97.6018 9.47345 97.1666 9.47345C96.7315 9.47345 96.5301 9.65922 96.5301 9.95011C96.5294 9.98009 96.5322 10.01 96.5382 10.0393H94.5891C94.5695 9.9434 94.561 9.84532 94.5636 9.74723C94.5636 8.75723 95.2835 8.08622 97.2581 8.08622C99.3588 8.08622 100.137 8.96012 100.137 10.0479V12.54H97.7766L97.8021 11.6844H97.7859C97.6018 12.1733 97.1076 12.6305 96.0868 12.6305C94.8148 12.6231 94.4294 11.9546 94.4294 11.4033ZM97.7766 11.0367V10.9316H97.0683C96.721 10.9316 96.5914 11.0538 96.5914 11.2493C96.5914 11.4449 96.7164 11.6026 97.0544 11.6026C97.5011 11.5977 97.7627 11.3153 97.7766 11.0318V11.0367Z" fill="#2C3D5A"/>
<path d="M101.034 10.9181V9.77778H100.414V8.16567H100.915C101.208 8.16567 101.368 8.05078 101.41 7.689L101.469 7.17567H103.393V8.16567H105.014V9.77411H103.393V10.5954C103.393 10.9316 103.578 11.0636 104.263 11.0636C104.489 11.0664 104.716 11.0517 104.941 11.0196V12.5168C104.461 12.5858 103.977 12.6152 103.493 12.6048C101.677 12.6048 101.034 11.8898 101.034 10.9181Z" fill="#2C3D5A"/>
</svg>
