<svg width="70" height="29" viewBox="0 0 70 29" fill="none" xmlns="http://www.w3.org/2000/svg">
<path d="M42.1562 0.235888V9.46733C49.9722 1.49478 59.2373 -0.77489 69.5428 0.219999V15.4636C67.985 15.4636 66.4294 15.4709 64.8715 15.4636C64.1482 15.4574 63.434 15.4538 62.713 15.5186C62.0794 15.5754 61.4493 15.6684 60.8252 15.7972C59.6021 16.051 58.4098 16.449 57.2708 16.984C56.1117 17.5292 55.0106 18.2028 53.9861 18.9933C53.4019 19.4452 52.8402 19.9286 52.3032 20.4417C46.537 25.9417 39.6875 28.6489 31.8947 28.6746C30.4688 28.6746 29.044 28.6746 27.4653 28.6746V18.6474L27.1505 18.3737C23.4468 21.9609 19.4745 25.0531 14.7095 26.8473C9.94444 28.6416 5.04398 28.8652 0 28.6098C0 19.5983 0 9.02122 0 0H14.4549C14.4549 2.56667 14.4468 6.69289 14.4468 9.68733C22.3426 1.57178 31.6551 -0.806668 42.1562 0.235888Z" fill="#2C3D5A"/>
</svg>
